<?xml version="1.0" encoding="UTF-8" standalone="no"?>
<svg
   xmlns:osb="http://www.openswatchbook.org/uri/2009/osb"
   xmlns:dc="http://purl.org/dc/elements/1.1/"
   xmlns:cc="http://creativecommons.org/ns#"
   xmlns:rdf="http://www.w3.org/1999/02/22-rdf-syntax-ns#"
   xmlns:svg="http://www.w3.org/2000/svg"
   xmlns="http://www.w3.org/2000/svg"
   xmlns:sodipodi="http://sodipodi.sourceforge.net/DTD/sodipodi-0.dtd"
   xmlns:inkscape="http://www.inkscape.org/namespaces/inkscape"
   width="957.26941"
   height="349.45987"
   id="svg3096"
   version="1.1"
   inkscape:version="1.0.2 (e86c870879, 2021-01-15)"
   sodipodi:docname="LOGO.svg"
   inkscape:export-filename="/home/gilles/Documents/LesJetesDeLEncre/Logo/LOGO.png"
   inkscape:export-xdpi="68.470001"
   inkscape:export-ydpi="68.470001">
  <defs
     id="defs3098">
    <linearGradient
       id="linearGradient4052"
       osb:paint="solid">
      <stop
         style="stop-color:#000000;stop-opacity:1;"
         offset="0"
         id="stop4054" />
    </linearGradient>
  </defs>
  <sodipodi:namedview
     id="base"
     pagecolor="#ffffff"
     bordercolor="#666666"
     borderopacity="1.0"
     inkscape:pageopacity="0.0"
     inkscape:pageshadow="2"
     inkscape:zoom="0.98994949"
     inkscape:cx="562.15767"
     inkscape:cy="147.38135"
     inkscape:document-units="px"
     inkscape:current-layer="layer1"
     showgrid="false"
     showguides="true"
     inkscape:guide-bbox="true"
     inkscape:window-width="1920"
     inkscape:window-height="983"
     inkscape:window-x="0"
     inkscape:window-y="27"
     inkscape:window-maximized="1"
     fit-margin-top="0"
     fit-margin-left="0"
     fit-margin-right="0"
     fit-margin-bottom="0"
     inkscape:document-rotation="0" />
  <metadata
     id="metadata3101">
    <rdf:RDF>
      <cc:Work
         rdf:about="">
        <dc:format>image/svg+xml</dc:format>
        <dc:type
           rdf:resource="http://purl.org/dc/dcmitype/StillImage" />
        <dc:title></dc:title>
      </cc:Work>
    </rdf:RDF>
  </metadata>
  <g
     inkscape:label="Calque 1"
     inkscape:groupmode="layer"
     id="layer1"
     transform="translate(-45.250068,-310.42305)">
    <path
       sodipodi:nodetypes="sscscssccccccccs"
       inkscape:connector-curvature="0"
       id="path3255"
       style="font-style:normal;font-variant:normal;font-weight:normal;font-stretch:normal;font-size:300px;line-height:125%;font-family:'Water Park';-inkscape-font-specification:'Water Park';text-align:start;letter-spacing:0px;word-spacing:0px;writing-mode:lr-tb;text-anchor:start;fill:#117617;fill-opacity:1;stroke:none"
       d="m 99.354925,488.00109 c -8.36335,43.08174 24.683315,31.44487 26.789245,0.2622 0.83499,-12.36385 14.29059,-20.90901 29.89144,-7.64782 10.95798,-2.11808 58.25943,-117.12626 58.25943,-117.12626 10.34945,6.67887 0,0 11.58618,10.56799 -13.8455,20.06833 -52.92122,95.10037 -51.78379,99.1982 2.8147,10.14055 14.83937,33.78757 -12.88608,54.09282 -25.75102,18.85923 9.72115,35.07643 -17.73436,56.3691 -50.005235,11.82591 -50.114435,-45.59101 -51.060065,-34.74451 2.61171,43.87587 30.001955,58.69469 46.055275,54.02216 62.95018,-21.28591 154.5087,33.42513 21.77232,30.945 -33.70195,-1.24397 -55.32416,-14.86672 -87.254554,-4.34775 -19.4934,11.32372 -46.925659,-17.8615 -8.088875,-99.90998 28.143184,-70.63803 3.276436,-126.88343 -4.512412,-175.17875 -9.257744,-42.6284 32.311386,-46.69981 59.063201,-28.82328 66.0991,42.93153 -14.09553,131.40605 -20.096955,162.32088 z"
       inkscape:export-filename="/home/gilles/Documents/LesJetesDeLEncre/Logo/LOGO.png"
       inkscape:export-xdpi="102.87"
       inkscape:export-ydpi="102.87" />
    <ellipse
       id="path3257-9"
       style="font-style:normal;font-weight:normal;font-size:300px;line-height:125%;font-family:Sans;letter-spacing:0px;word-spacing:0px;fill:#ffffff;fill-opacity:1;stroke:#ffe8b4;stroke-width:0;stroke-miterlimit:4;stroke-dasharray:none;stroke-opacity:1"
       transform="matrix(1.366159,0,0,1.2900494,-19.275012,131.97915)"
       inkscape:export-filename="/home/gilles/Documents/LesJetesDeLEncre/Logo/LOGO.png"
       inkscape:export-xdpi="102.87"
       inkscape:export-ydpi="102.87"
       cx="94.821426"
       cy="158.73734"
       rx="2.6785715"
       ry="2.8571429" />
    <ellipse
       id="path3257-1"
       style="font-style:normal;font-weight:normal;font-size:300px;line-height:125%;font-family:Sans;letter-spacing:0px;word-spacing:0px;fill:#ffffff;fill-opacity:1;stroke:#ffffff;stroke-width:0;stroke-miterlimit:4;stroke-dasharray:none;stroke-opacity:1"
       transform="matrix(-1.7046346,-0.10808016,0.11897734,-2.5333466,257.13223,794.71032)"
       inkscape:export-filename="/home/gilles/Documents/LesJetesDeLEncre/Logo/LOGO.png"
       inkscape:export-xdpi="102.87"
       inkscape:export-ydpi="102.87"
       cx="94.821426"
       cy="158.73734"
       rx="2.6785715"
       ry="2.8571429" />
    <g
       transform="matrix(1,0,0,1.1264792,-28.356061,-105.3114)"
       id="text4058"
       style="font-style:normal;font-variant:normal;font-weight:normal;font-stretch:normal;font-size:300px;line-height:125%;font-family:'Water Park';-inkscape-font-specification:'Water Park';text-align:start;letter-spacing:0px;word-spacing:0px;writing-mode:lr-tb;text-anchor:start;fill:#000000;fill-opacity:1;stroke:none"
       inkscape:export-filename="/home/gilles/Documents/LesJetesDeLEncre/Logo/LOGO.png"
       inkscape:export-xdpi="102.87"
       inkscape:export-ydpi="102.87">
      <path
         style="fill:#112347;fill-opacity:1"
         sodipodi:nodetypes="ccssccccccccc"
         inkscape:connector-curvature="0"
         id="path4063"
         d="m 400.17278,494.35955 c 5.9096,-37.62143 32.45228,-35.94399 37.97479,-108.85591 11.51566,-31.62771 36.78276,-8.55093 14.06437,11.34041 -5.04391,4.41625 -12.33062,14.21546 -15.21908,26.9121 -2.88846,12.69664 -1.78636,31.50257 21.79348,52.11346 23.68377,27.5013 -26.58607,7.96007 6.69096,40.77479 9.86286,37.56794 -33.37628,23.88585 -43.1811,26.06022 25.85392,19.66128 17.38381,51.90278 -29.00945,116.31278 -23.79921,26.0645 -60.77845,30.61225 -92.11325,-8.94898 -27.22003,-41.17134 -42.21784,-84.29654 18.21445,-16.42572 33.43622,28.1105 70.9294,10.54915 62.17194,-60.28232 -7.23224,-94.35727 -98.61672,-113.64049 -71.47833,-164.97704 61.08389,-26.96741 46.81588,53.6379 90.09122,85.97621 z" />
    </g>
    <g
       style="font-style:normal;font-variant:normal;font-weight:normal;font-stretch:normal;font-size:300px;line-height:125%;font-family:'Water Park';-inkscape-font-specification:'Water Park';text-align:start;letter-spacing:0px;word-spacing:0px;writing-mode:lr-tb;text-anchor:start;fill:#dc6b23;fill-opacity:1;stroke:none"
       id="text4094"
       transform="matrix(1.116544,0,0,1.3675454,-117.00655,-264.01013)"
       inkscape:export-filename="/home/gilles/Documents/LesJetesDeLEncre/Logo/LOGO.png"
       inkscape:export-xdpi="102.87"
       inkscape:export-ydpi="102.87">
      <path
         d="m 627.14349,667.55192 c -36.36454,16.93518 -112.97025,6.10838 -87.55302,-23.22404 18.52597,-11.44283 19.2327,-18.65805 15.8245,-50.69197 -8.89887,-10.10974 -11.7426,-24.27761 -0.12277,-31.74665 6.35626,-3.6938 15.08273,-6.44751 25.55525,0.0432 8.08589,9.45603 9.45029,19.20212 -3.40681,31.024 -7.53453,50.43823 14.59978,73.60553 62.20145,38.41099 57.34191,-63.47389 -0.13175,-146.54283 -34.63448,-104.50753 -15.91738,21.0442 -46.42931,23.04188 -65.22461,2.10379 -9.09406,-11.43768 -13.73258,-38.27984 -5.03209,-56.53878 22.45747,-39.82426 42.40407,-31.13479 68.62025,-31.87358 133.91228,9.59737 122.90884,171.30196 23.77233,227.00057 z"
         id="path4118"
         inkscape:connector-curvature="0"
         sodipodi:nodetypes="cccccccccccc"
         style="fill:#dc6b23;fill-opacity:1" />
    </g>
    <g
       style="font-style:normal;font-variant:normal;font-weight:normal;font-stretch:normal;font-size:300px;line-height:125%;font-family:'Water Park';-inkscape-font-specification:'Water Park';text-align:start;letter-spacing:0px;word-spacing:0px;writing-mode:lr-tb;text-anchor:start;fill:#6d2523;fill-opacity:1;stroke:none"
       id="text4127"
       transform="matrix(1.1169732,0,0,1.1823197,-79.646384,-172.95469)"
       inkscape:export-filename="/home/gilles/Documents/LesJetesDeLEncre/Logo/LOGO.png"
       inkscape:export-xdpi="102.87"
       inkscape:export-ydpi="102.87">
      <path
         d="m 932.57398,453.56059 c -21.40754,36.1867 -68.77074,7.57962 -88.14871,41.78292 -27.29231,44.16359 -8.60776,69.95023 9.99302,77.11636 18.55788,-11.73485 2.12351,-28.59815 26.40936,-36.87671 13.13369,-2.18023 22.9322,-2.7857 34.02099,6.18431 16.47804,-24.26525 42.91394,-52.36461 52.84196,-47.52995 9.20991,6.26418 -40.01806,44.33696 -41.38797,56.46763 -0.29937,13.34565 26.47176,4.80053 9.59076,26.95616 -16.3795,24.50885 -55.27916,14.16531 -57.25258,62.84419 -1.26068,31.09767 -55.41903,50.02263 -86.89002,27.47614 -34.81058,-24.93905 -8.4555,-60.81539 35.40842,-84.87004 -27.51736,-4.41026 -63.32801,40.90341 -58.71246,73.45808 5.00318,35.28866 54.30218,24.33419 137.05703,17.90717 89.44847,-10.43017 23.81002,21.80534 -68.00696,26.22102 -181.88376,16.35267 -126.88165,-41.96022 -90.95287,-91.30066 36.57178,-46.03788 53.09267,-65.81506 35.20972,-100.34973 -21.9031,-30.81841 19.50743,-74.56158 61.49693,-75.17439 30.08542,-1.66073 89.32338,19.6875 89.32338,19.6875 z"
         style="fill:#6d2523;fill-opacity:1"
         id="path4132"
         inkscape:connector-curvature="0"
         sodipodi:nodetypes="ccccccccsscscccccc" />
    </g>
    <path
       style="fill:#ffffff;fill-opacity:0;stroke:none"
       d="m 154.82732,325.15248 c -9.59217,-1.14031 -16.03199,-2.11341 -25.25381,-3.81601 -5.97253,-1.10269 -13.81384,-2.44065 -17.42513,-2.97324 -8.08815,-1.19284 -20.292607,-1.30206 -26.769045,-0.23957 -5.265383,0.86382 -12.45792,2.78316 -14.647212,3.90864 -0.833376,0.42842 -2.652158,0.93283 -4.041738,1.12089 -5.820565,0.78777 -11.561778,-2.16589 -15.155479,-7.79696 -4.14489,-6.49475 -5.804058,-13.43954 -5.804058,-24.2941 0,-17.15717 5.271632,-37.35215 16.270203,-62.32916 7.730512,-17.55547 12.330005,-33.86868 14.810202,-52.52794 1.114087,-8.3816 1.520451,-27.94743 0.781503,-37.62818 C 76.227368,120.68927 74.926159,113.07154 67.369332,78.725313 61.430727,51.734009 59.885156,43.500944 59.546958,37.056521 59.052141,27.627692 61.259608,20.950229 66.655238,15.554378 80.44454,1.7645099 110.52883,6.934996 130.04234,26.448507 c 18.49476,18.494758 19.90408,43.829239 4.46645,80.290633 -4.41633,10.43072 -7.48939,16.5657 -17.97167,35.87832 -14.64149,26.97556 -17.05058,32.64474 -18.317978,43.10676 -1.775697,14.6579 2.356398,23.35774 10.469038,22.04183 1.4304,-0.23202 3.48503,-0.98009 4.56584,-1.66238 3.27375,-2.06662 7.09858,-6.70246 9.18854,-11.13684 2.20224,-4.67261 2.75081,-6.65893 3.83791,-13.89673 0.89898,-5.98526 2.21928,-9.11252 4.97723,-11.78902 4.94785,-4.80173 12.85688,-4.2712 20.55362,1.37873 1.31655,0.96643 2.76037,1.75715 3.20849,1.75715 1.36547,0 4.62082,-3.34751 7.75865,-7.9783 3.87651,-5.72093 7.46874,-11.98773 16.41679,-28.63973 10.90383,-20.29162 15.00181,-26.94436 18.27131,-29.662 2.49781,-2.0762 3.86819,-0.26533 2.80678,3.70902 -1.44917,5.42631 -6.29553,14.23642 -19.68362,35.78245 -11.6248,18.7083 -15.48304,25.48107 -16.99888,29.83986 -1.22597,3.52525 -1.22636,3.5334 -0.27734,5.66908 0.52272,1.17632 2.36405,3.91436 4.09185,6.08454 6.5546,8.23281 7.87232,11.64293 6.42405,16.6248 -1.08969,3.74841 -4.66007,8.39644 -9.37756,12.20799 -9.43323,7.62172 -12.18443,11.15616 -13.09759,16.82636 -0.55615,3.45338 -0.29774,5.779 1.67173,15.04484 1.45585,6.84938 1.57905,9.50308 0.60969,13.13198 -1.10063,4.12029 -2.73094,6.74945 -6.55717,10.57455 -3.54138,3.54034 -3.69293,3.62869 -7.40347,4.3162 -5.20603,0.96462 -14.07601,0.85411 -18.17411,-0.22643 -13.48587,-3.55581 -22.416739,-14.07654 -27.345197,-32.21318 -0.660134,-2.42929 -1.39759,-4.41803 -1.63879,-4.41942 -0.551801,-0.003 0.04026,7.53567 1.011276,12.87691 2.606336,14.33651 7.890981,25.2764 16.102921,33.33503 6.84229,6.71456 13.19499,9.77514 21.20507,10.21609 4.06259,0.22364 5.27034,0.0589 11.36422,-1.55054 11.88587,-3.13906 15.15637,-3.55654 28.03173,-3.57827 12.55844,-0.0212 18.4117,0.60981 28.53681,3.07636 14.37039,3.50073 25.56711,9.45697 28.26881,15.03794 3.70685,7.65732 -6.41105,12.96339 -30.01366,15.7399 -6.26567,0.73706 -37.90994,1.41911 -42.19679,0.90949 z M 117.32315,85.777117 c 2.52266,-1.054033 3.5532,-2.072186 5.01487,-4.954596 1.64988,-3.25356 2.10758,-8.443587 1.02486,-11.621209 -1.62532,-4.770026 -4.7913,-7.396054 -8.9168,-7.396054 -5.18721,0 -9.0741,4.668506 -9.51245,11.42531 -0.59009,9.095656 5.61342,15.377785 12.38952,12.546549 z M 80.74937,52.301936 c 1.197087,-1.322767 1.547846,-3.762445 0.846477,-5.887614 -0.989899,-2.999426 -4.22494,-3.519796 -5.624113,-0.904663 -0.975369,1.82302 -0.803358,5.462021 0.316683,6.699652 1.139293,1.258906 3.363685,1.305091 4.460953,0.09262 z m 30.09966,-21.626983 c 3.19799,-4.065586 -1.44634,-10.31818 -5.01411,-6.750416 -1.25768,1.257683 -1.38765,5.297189 -0.2239,6.958686 1.15056,1.642651 3.86703,1.534641 5.23801,-0.20827 z"
       id="path3809"
       inkscape:connector-curvature="0"
       transform="translate(0,308.2677)" />
    <ellipse
       id="path3257-9-6"
       style="font-style:normal;font-weight:normal;font-size:300px;line-height:125%;font-family:Sans;letter-spacing:0px;word-spacing:0px;fill:#ffffff;fill-opacity:1;stroke:#ffe8b4;stroke-width:0;stroke-miterlimit:4;stroke-dasharray:none;stroke-opacity:1"
       transform="matrix(1.366159,0,0,1.2900494,-43.678178,148.55762)"
       inkscape:export-filename="/home/gilles/Documents/LesJetesDeLEncre/Logo/LOGO.png"
       inkscape:export-xdpi="102.87"
       inkscape:export-ydpi="102.87"
       cx="94.821426"
       cy="158.73734"
       rx="2.6785715"
       ry="2.8571429" />
    <ellipse
       id="path3257-9-0"
       style="font-style:normal;font-weight:normal;font-size:300px;line-height:125%;font-family:Sans;letter-spacing:0px;word-spacing:0px;fill:#ffffff;fill-opacity:1;stroke:#ffe8b4;stroke-width:0;stroke-miterlimit:4;stroke-dasharray:none;stroke-opacity:1"
       transform="matrix(1.366159,0,0,1.2900494,184.69605,165.52219)"
       inkscape:export-filename="/home/gilles/Documents/LesJetesDeLEncre/Logo/LOGO.png"
       inkscape:export-xdpi="102.87"
       inkscape:export-ydpi="102.87"
       cx="94.821426"
       cy="158.73734"
       rx="2.6785715"
       ry="2.8571429" />
    <ellipse
       id="path3257-9-6-4"
       style="font-style:normal;font-weight:normal;font-size:300px;line-height:125%;font-family:Sans;letter-spacing:0px;word-spacing:0px;fill:#ffffff;fill-opacity:1;stroke:#ffe8b4;stroke-width:0;stroke-miterlimit:4;stroke-dasharray:none;stroke-opacity:1"
       transform="matrix(1.366159,0,0,1.2900494,169.38425,178.56513)"
       inkscape:export-filename="/home/gilles/Documents/LesJetesDeLEncre/Logo/LOGO.png"
       inkscape:export-xdpi="102.87"
       inkscape:export-ydpi="102.87"
       cx="94.821426"
       cy="158.73734"
       rx="2.6785715"
       ry="2.8571429" />
    <ellipse
       id="path3257-9-0-6"
       style="font-style:normal;font-weight:normal;font-size:300px;line-height:125%;font-family:Sans;letter-spacing:0px;word-spacing:0px;fill:#ffffff;fill-opacity:1;stroke:#ffe8b4;stroke-width:0;stroke-miterlimit:4;stroke-dasharray:none;stroke-opacity:1"
       transform="matrix(2.7803726,0,0,2.7042629,251.28637,-50.677058)"
       inkscape:export-filename="/home/gilles/Documents/LesJetesDeLEncre/Logo/LOGO.png"
       inkscape:export-xdpi="102.87"
       inkscape:export-ydpi="102.87"
       cx="94.821426"
       cy="158.73734"
       rx="2.6785715"
       ry="2.8571429" />
    <ellipse
       id="path3257-9-0-6-5"
       style="font-style:normal;font-weight:normal;font-size:300px;line-height:125%;font-family:Sans;letter-spacing:0px;word-spacing:0px;fill:#ffffff;fill-opacity:1;stroke:#ffe8b4;stroke-width:0;stroke-miterlimit:4;stroke-dasharray:none;stroke-opacity:1"
       transform="matrix(2.7803726,0,0,2.7042629,254.06429,48.822972)"
       inkscape:export-filename="/home/gilles/Documents/LesJetesDeLEncre/Logo/LOGO.png"
       inkscape:export-xdpi="102.87"
       inkscape:export-ydpi="102.87"
       cx="94.821426"
       cy="158.73734"
       rx="2.6785715"
       ry="2.8571429" />
    <ellipse
       id="path3257-9-0-6-51"
       style="font-style:normal;font-weight:normal;font-size:300px;line-height:125%;font-family:Sans;letter-spacing:0px;word-spacing:0px;fill:#ffffff;fill-opacity:1;stroke:#ffe8b4;stroke-width:0;stroke-miterlimit:4;stroke-dasharray:none;stroke-opacity:1"
       transform="matrix(2.7803726,0,0,2.7042629,651.55932,-69.869953)"
       inkscape:export-filename="/home/gilles/Documents/LesJetesDeLEncre/Logo/LOGO.png"
       inkscape:export-xdpi="102.87"
       inkscape:export-ydpi="102.87"
       cx="94.821426"
       cy="158.73734"
       rx="2.6785715"
       ry="2.8571429" />
    <ellipse
       id="path3257-9-6-4-0"
       style="font-style:normal;font-weight:normal;font-size:300px;line-height:125%;font-family:Sans;letter-spacing:0px;word-spacing:0px;fill:#ffffff;fill-opacity:1;stroke:#ffe8b4;stroke-width:0;stroke-miterlimit:4;stroke-dasharray:none;stroke-opacity:1"
       inkscape:export-filename="/home/gilles/Documents/LesJetesDeLEncre/Logo/LOGO.png"
       inkscape:export-xdpi="102.87"
       inkscape:export-ydpi="102.87"
       cx="328.06961"
       cy="403.4147"
       rx="6.6666603"
       ry="8.794219" />
  </g>
</svg>
